<svg width="32" height="32" viewBox="0 0 32 32" fill="none" xmlns="http://www.w3.org/2000/svg">
<path fill-rule="evenodd" clip-rule="evenodd" d="M5 17.6364C5 19.7451 6.70946 21.4545 8.81818 21.4545C10.2087 21.4545 11.4565 20.7044 12.1257 19.5455H18.8743C19.5435 20.7044 20.7913 21.4545 22.1818 21.4545C24.2905 21.4545 26 19.7451 26 17.6364C26 16.9546 25.82 16.2995 25.4891 15.7273C25.82 15.1551 26 14.5 26 13.8182C26 11.7095 24.2905 10 22.1818 10C20.7913 10 19.5435 10.7501 18.8743 11.9091H12.1257C11.4565 10.7501 10.2087 10 8.81818 10C6.70946 10 5 11.7095 5 13.8182C5 14.5 5.18002 15.1551 5.51088 15.7273C5.18002 16.2995 5 16.9546 5 17.6364ZM10.8438 17.6364L10.6189 18.2728C10.3516 19.0291 9.63386 19.5455 8.81818 19.5455C7.76382 19.5455 6.90909 18.6907 6.90909 17.6364C6.90909 17.1593 7.08348 16.7119 7.39498 16.3639L7.96475 15.7273L7.39498 15.0907C7.08348 14.7426 6.90909 14.2952 6.90909 13.8182C6.90909 12.7638 7.76382 11.9091 8.81818 11.9091C9.63386 11.9091 10.3516 12.4254 10.6189 13.1817L10.8438 13.8182H20.1562L20.3811 13.1817C20.6484 12.4254 21.3661 11.9091 22.1818 11.9091C23.2362 11.9091 24.0909 12.7638 24.0909 13.8182C24.0909 14.2952 23.9165 14.7426 23.605 15.0907L23.0352 15.7273L23.605 16.3639C23.9165 16.7119 24.0909 17.1593 24.0909 17.6364C24.0909 18.6907 23.2362 19.5455 22.1818 19.5455C21.3661 19.5455 20.6484 19.0291 20.3811 18.2728L20.1562 17.6364H10.8438Z" fill="white"/>
<circle cx="15.5" cy="15.5" r="14.25" stroke="white" stroke-width="2.5"/>
</svg>
