<svg width="32" height="32" viewBox="0 0 32 32" fill="none" xmlns="http://www.w3.org/2000/svg">
<path fill-rule="evenodd" clip-rule="evenodd" d="M1.33342 16C1.33342 7.89986 7.89991 1.33337 16.0001 1.33337C24.1003 1.33337 30.6667 7.89986 30.6667 16C30.6667 24.1002 24.1003 30.6667 16.0001 30.6667C7.89991 30.6667 1.33342 24.1002 1.33342 16ZM4.00008 16C4.00008 22.6275 9.37266 28 16.0001 28C22.6275 28 28.0001 22.6275 28.0001 16C28.0001 9.37262 22.6275 4.00004 16.0001 4.00004C9.37266 4.00004 4.00008 9.37262 4.00008 16ZM10.6667 9.33337L13.3334 9.33337L13.3334 22.6667L10.6667 22.6667L10.6667 9.33337ZM21.3334 9.33337L18.6667 9.33337L18.6667 22.6667L21.3334 22.6667L21.3334 9.33337ZM17.3334 9.33337L14.6667 9.33337L14.6667 22.6667L17.3334 22.6667L17.3334 9.33337Z" fill="white"/>
</svg>
