<svg width="34" height="34" viewBox="0 0 34 34" fill="none" xmlns="http://www.w3.org/2000/svg">
<path fill-rule="evenodd" clip-rule="evenodd" d="M5.66671 2.83337H28.3334C29.8982 2.83337 31.1667 4.1019 31.1667 5.66671V28.3334C31.1667 29.8982 29.8982 31.1667 28.3334 31.1667H5.66671C4.1019 31.1667 2.83337 29.8982 2.83337 28.3334V5.66671C2.83337 4.1019 4.1019 2.83337 5.66671 2.83337ZM5.66671 5.66671V28.3334H28.3334V5.66671H5.66671ZM15.7719 17.0063H18.4167V25.5H21.25V17.0063H24.0585V14.1729H21.25V12.75C21.25 11.9676 21.8843 11.3334 22.6667 11.3334H24.0834V8.50004H22.6667C20.3195 8.50004 18.4167 10.4028 18.4167 12.75V14.1729H15.7719V17.0063Z" fill="black"/>
</svg>
