<svg width="34" height="34" viewBox="0 0 34 34" fill="none" xmlns="http://www.w3.org/2000/svg">
<path fill-rule="evenodd" clip-rule="evenodd" d="M22.6667 2.83337H11.3334C6.63895 2.83337 2.83337 6.63895 2.83337 11.3334V22.6667C2.83337 27.3611 6.63895 31.1667 11.3334 31.1667H22.6667C27.3611 31.1667 31.1667 27.3611 31.1667 22.6667V11.3334C31.1667 6.63895 27.3611 2.83337 22.6667 2.83337ZM5.66671 11.3334C5.66671 8.20376 8.20376 5.66671 11.3334 5.66671H22.6667C25.7963 5.66671 28.3334 8.20376 28.3334 11.3334V22.6667C28.3334 25.7963 25.7963 28.3334 22.6667 28.3334H11.3334C8.20376 28.3334 5.66671 25.7963 5.66671 22.6667V11.3334ZM17 24.0834C13.088 24.0834 9.91671 20.9121 9.91671 17C9.91671 13.088 13.088 9.91671 17 9.91671C20.9121 9.91671 24.0834 13.088 24.0834 17C24.0834 20.9121 20.9121 24.0834 17 24.0834ZM17 21.25C19.3472 21.25 21.25 19.3472 21.25 17C21.25 14.6528 19.3472 12.75 17 12.75C14.6528 12.75 12.75 14.6528 12.75 17C12.75 19.3472 14.6528 21.25 17 21.25ZM25.5 9.91671C25.5 10.6991 24.8658 11.3334 24.0834 11.3334C23.301 11.3334 22.6667 10.6991 22.6667 9.91671C22.6667 9.1343 23.301 8.50004 24.0834 8.50004C24.8658 8.50004 25.5 9.1343 25.5 9.91671Z" fill="black"/>
</svg>
