<svg width="32" height="32" viewBox="0 0 32 32" fill="none" xmlns="http://www.w3.org/2000/svg">
<path fill-rule="evenodd" clip-rule="evenodd" d="M16 30.6667C7.89986 30.6667 1.33337 24.1002 1.33337 16C1.33337 7.89986 7.89986 1.33337 16 1.33337C24.1002 1.33337 30.6667 7.89986 30.6667 16C30.6667 24.1002 24.1002 30.6667 16 30.6667ZM16 28C22.6275 28 28 22.6275 28 16C28 9.37262 22.6275 4.00004 16 4.00004C9.37262 4.00004 4.00004 9.37262 4.00004 16C4.00004 22.6275 9.37262 28 16 28ZM9.33337 21.3334V18.6667H22.6667V21.3334H9.33337ZM9.33337 10.6667V13.3334H22.6667V10.6667H9.33337ZM9.33337 14.6667V17.3334H22.6667V14.6667H9.33337Z" fill="white"/>
</svg>
