<svg width="34" height="34" viewBox="0 0 34 34" fill="none" xmlns="http://www.w3.org/2000/svg">
<path fill-rule="evenodd" clip-rule="evenodd" d="M29.9194 6.38676L31.9236 6.62082L31.0227 8.42637C30.5833 9.30687 30.1436 10.1874 29.7034 11.0679C29.6511 11.2543 29.5594 11.4178 29.4237 11.6307C29.367 11.7196 29.1733 12.0025 29.1643 12.0161C29.1131 12.0928 29.0753 12.1533 29.0481 12.2018V15.5855C29.0481 24.2442 20.6685 29.7464 12.7551 29.7464C11.1358 29.7464 9.90547 29.6688 8.49671 29.3614C6.17834 28.8555 4.45301 27.8498 3.6635 26.0922L2.85067 24.2827L4.82604 24.101C6.61305 23.9366 8.16243 23.5962 9.35229 23.1403C6.08571 22.615 4.25514 21.1803 4.25514 18.486V17.0693H5.67181C5.98307 17.0693 6.26373 17.044 6.51464 16.9977C4.06304 15.5319 2.8351 13.1804 2.8351 9.91886C2.83484 9.77985 2.83484 9.77985 2.834 9.63121C2.82479 7.98724 2.91309 7.10883 3.36313 5.98771C3.65156 5.2692 4.06847 4.60404 4.62957 3.99457L5.6986 2.83337L6.73795 4.0212C10.1631 7.93565 13.549 10.3105 17.006 10.5977C17.0207 6.98569 19.7505 4.2522 23.3812 4.2522C25.0737 4.2522 26.609 4.89464 27.8156 6.05307C28.4759 6.18876 29.1772 6.30009 29.9194 6.38676ZM26.7873 8.72954L26.353 8.6312L26.0531 8.30207C25.3279 7.50629 24.4176 7.08551 23.3812 7.08551C21.3086 7.08551 19.8392 8.56222 19.8392 10.6272C19.8392 10.9646 19.8305 11.1767 19.7885 11.4554C19.6207 12.5675 18.9969 13.4605 17.7142 13.4605C13.467 13.4605 9.63529 11.1852 5.89889 7.29908C5.70627 7.88463 5.66097 8.48652 5.66729 9.61531C5.66814 9.76628 5.66814 9.76628 5.66844 9.91884C5.66844 12.8202 6.84386 14.4072 9.62695 15.2918L10.6145 15.6057V16.6419C10.6145 17.8985 9.42402 19.0813 7.68217 19.6111C8.48065 20.2169 10.1136 20.5438 12.7556 20.5438H14.1722V21.9605C14.1722 23.9902 11.84 25.5794 8.31693 26.4093C9.4659 26.7613 10.9957 26.913 12.7551 26.913C19.2922 26.913 26.2148 22.3675 26.2148 15.5855V12.0438C26.2148 11.6276 26.3354 11.2664 26.5358 10.8908C26.6142 10.7439 26.7005 10.6039 26.807 10.4442C26.827 10.4142 26.9014 10.3052 26.9604 10.2181L27.0727 9.99359C27.2547 9.62973 27.4365 9.26588 27.6183 8.90202C27.3358 8.84851 27.0588 8.79102 26.7873 8.72954Z" fill="black"/>
</svg>
